<svg width="221" height="54" viewBox="0 0 221 54" fill="none" xmlns="http://www.w3.org/2000/svg">
<path d="M8.38281 17.043C8.38281 16.6654 8.35026 16.3919 8.28516 16.2227C8.23307 16.0534 8.20703 15.8971 8.20703 15.7539C8.20703 15.5586 8.3112 15.3958 8.51953 15.2656C8.72786 15.1354 8.97526 15.0703 9.26172 15.0703C9.92578 15.0703 10.4596 15.2461 10.8633 15.5977C11.2799 15.9362 11.4883 16.3529 11.4883 16.8477V29.9141C11.944 29.862 12.4583 29.7318 13.0312 29.5234C13.6172 29.3151 14.2161 29.0286 14.8281 28.6641C15.4401 28.2865 16.0326 27.8242 16.6055 27.2773C17.1914 26.7305 17.7122 26.0924 18.168 25.3633C18.6237 24.6341 18.9883 23.8138 19.2617 22.9023C19.5482 21.9779 19.6914 20.9557 19.6914 19.8359C19.6914 19.0807 19.5677 18.2995 19.3203 17.4922C19.0859 16.6849 18.7083 15.9492 18.1875 15.2852C17.6667 14.6211 16.9896 14.0742 16.1562 13.6445C15.3359 13.2148 14.3398 13 13.168 13C11.5664 13 10.1927 13.2474 9.04688 13.7422C7.90104 14.237 6.96354 14.901 6.23438 15.7344C5.51823 16.5677 4.99089 17.5378 4.65234 18.6445C4.3138 19.7383 4.14453 20.8971 4.14453 22.1211C4.14453 23.0065 4.21615 23.7552 4.35938 24.3672C4.51562 24.9661 4.6849 25.4609 4.86719 25.8516C5.04948 26.2292 5.21875 26.5091 5.375 26.6914C5.53125 26.8737 5.6224 26.9779 5.64844 27.0039C5.86979 26.9388 6.02604 26.9648 6.11719 27.082C6.20833 27.1992 6.25391 27.3555 6.25391 27.5508C6.25391 27.7331 6.1888 28.0065 6.05859 28.3711C5.94141 28.7357 5.77865 29.0807 5.57031 29.4062C5.36198 29.7188 5.12109 29.9596 4.84766 30.1289C4.57422 30.2852 4.29427 30.2526 4.00781 30.0312C3.85156 29.888 3.61068 29.6276 3.28516 29.25C2.95964 28.8724 2.63411 28.3711 2.30859 27.7461C1.99609 27.1081 1.71615 26.3464 1.46875 25.4609C1.22135 24.5625 1.09766 23.5273 1.09766 22.3555C1.09766 20.4805 1.39062 18.7878 1.97656 17.2773C2.5625 15.7539 3.38281 14.4518 4.4375 13.3711C5.50521 12.2904 6.77474 11.457 8.24609 10.8711C9.71745 10.2852 11.3451 9.99219 13.1289 9.99219C14.5872 9.99219 15.9089 10.2331 17.0938 10.7148C18.2917 11.1966 19.3073 11.8737 20.1406 12.7461C20.987 13.6055 21.638 14.6341 22.0938 15.832C22.5495 17.0299 22.7773 18.3385 22.7773 19.7578C22.7773 21.5026 22.4648 23.1172 21.8398 24.6016C21.2148 26.0729 20.3815 27.3815 19.3398 28.5273C18.2982 29.6732 17.0938 30.6237 15.7266 31.3789C14.3724 32.1341 12.9596 32.6484 11.4883 32.9219V38.1953C11.4883 38.5339 11.3776 38.7682 11.1562 38.8984C10.9349 39.0417 10.6745 39.1133 10.375 39.1133C10.1406 39.1133 9.90625 39.0807 9.67188 39.0156C9.4375 38.9505 9.22266 38.8659 9.02734 38.7617C8.84505 38.6576 8.6888 38.5339 8.55859 38.3906C8.44141 38.2604 8.38281 38.1172 8.38281 37.9609V17.043ZM33.2852 26.3594C33.2852 27.1016 33.1549 27.8633 32.8945 28.6445C32.6471 29.4258 32.2695 30.168 31.7617 30.8711C31.2669 31.5612 30.6484 32.1862 29.9062 32.7461C29.1771 33.293 28.3307 33.7096 27.3672 33.9961C27.4974 34.3346 27.6667 34.6602 27.875 34.9727C28.0964 35.2721 28.3568 35.5326 28.6562 35.7539C28.9557 35.9753 29.3008 36.151 29.6914 36.2812C30.0951 36.4115 30.5573 36.4766 31.0781 36.4766C31.8594 36.4766 32.5299 36.3333 33.0898 36.0469C33.6497 35.7474 34.1185 35.3568 34.4961 34.875C34.8867 34.3932 35.1992 33.8529 35.4336 33.2539C35.668 32.6549 35.8438 32.0495 35.9609 31.4375C36.0521 30.9948 36.2344 30.7018 36.5078 30.5586C36.7943 30.4023 37.0807 30.3633 37.3672 30.4414C37.6667 30.5195 37.9206 30.6888 38.1289 30.9492C38.3503 31.1966 38.4414 31.4961 38.4023 31.8477C38.3503 32.2513 38.2591 32.7135 38.1289 33.2344C38.0117 33.7552 37.8294 34.2826 37.582 34.8164C37.3346 35.3503 37.0156 35.8776 36.625 36.3984C36.2474 36.9062 35.7786 37.362 35.2188 37.7656C34.6589 38.1693 34.0013 38.4948 33.2461 38.7422C32.4909 38.9896 31.625 39.1133 30.6484 39.1133C29.737 39.1133 28.8516 38.931 27.9922 38.5664C27.1458 38.2148 26.3906 37.707 25.7266 37.043C25.0755 36.3659 24.5482 35.5391 24.1445 34.5625C23.7539 33.5729 23.5586 32.4531 23.5586 31.2031C23.5586 29.9401 23.7344 28.7682 24.0859 27.6875C24.4375 26.5938 24.8997 25.6497 25.4727 24.8555C26.0456 24.0612 26.6966 23.4427 27.4258 23C28.1549 22.5443 28.9036 22.3164 29.6719 22.3164C30.2318 22.3164 30.7331 22.4141 31.1758 22.6094C31.6315 22.8047 32.0156 23.0846 32.3281 23.4492C32.6406 23.8008 32.875 24.224 33.0312 24.7188C33.2005 25.2135 33.2852 25.7604 33.2852 26.3594ZM26.8398 31.0859C26.8398 31.2031 26.8464 31.3203 26.8594 31.4375C26.8724 31.5547 26.8789 31.6784 26.8789 31.8086C27.3737 31.5742 27.8229 31.2747 28.2266 30.9102C28.6302 30.5456 28.9753 30.1289 29.2617 29.6602C29.5482 29.1914 29.7695 28.6836 29.9258 28.1367C30.082 27.5768 30.1602 26.9974 30.1602 26.3984C30.1602 25.9557 30.082 25.6107 29.9258 25.3633C29.7826 25.1159 29.5807 24.9922 29.3203 24.9922C28.9948 24.9922 28.7018 25.1029 28.4414 25.3242C28.194 25.5456 27.9727 25.8385 27.7773 26.2031C27.5951 26.5547 27.4388 26.9583 27.3086 27.4141C27.1914 27.8568 27.0938 28.306 27.0156 28.7617C26.9375 29.2174 26.8854 29.6536 26.8594 30.0703C26.8333 30.474 26.8268 30.8125 26.8398 31.0859ZM35.9609 13.3516C35.9609 13.0651 35.9349 12.8372 35.8828 12.668C35.8438 12.4987 35.7982 12.3685 35.7461 12.2773C35.707 12.1732 35.6615 12.0951 35.6094 12.043C35.5703 11.9779 35.5508 11.9128 35.5508 11.8477C35.5508 11.7695 35.5898 11.7044 35.668 11.6523C35.7461 11.6003 35.8503 11.5547 35.9805 11.5156C36.1107 11.4766 36.2474 11.4505 36.3906 11.4375C36.5469 11.4115 36.6966 11.3984 36.8398 11.3984C37.5039 11.3984 38.0247 11.5742 38.4023 11.9258C38.793 12.2643 38.9883 12.6745 38.9883 13.1562V25.6367C39.3138 25.194 39.6523 24.7773 40.0039 24.3867C40.3685 23.9831 40.7461 23.6315 41.1367 23.332C41.5273 23.0195 41.931 22.7721 42.3477 22.5898C42.7773 22.4076 43.2201 22.3164 43.6758 22.3164C44.3008 22.3164 44.8346 22.4401 45.2773 22.6875C45.7201 22.9219 46.0846 23.2409 46.3711 23.6445C46.6706 24.0482 46.8854 24.5104 47.0156 25.0312C47.1589 25.5391 47.2305 26.0729 47.2305 26.6328C47.2305 27.401 47.1068 28.1237 46.8594 28.8008C46.612 29.4648 46.2995 30.0703 45.9219 30.6172C45.5443 31.1641 45.1276 31.6523 44.6719 32.082C44.2292 32.5117 43.806 32.8698 43.4023 33.1562C43.4935 33.5859 43.6172 34.0026 43.7734 34.4062C43.9427 34.7969 44.1445 35.1484 44.3789 35.4609C44.6133 35.7734 44.8802 36.0208 45.1797 36.2031C45.4922 36.3854 45.8438 36.4766 46.2344 36.4766C46.6901 36.4766 47.1133 36.3398 47.5039 36.0664C47.9076 35.7799 48.2591 35.4284 48.5586 35.0117C48.8711 34.582 49.1315 34.1198 49.3398 33.625C49.5482 33.1172 49.6979 32.6419 49.7891 32.1992C49.8672 31.7956 49.9844 31.5026 50.1406 31.3203C50.3099 31.138 50.4857 31.0404 50.668 31.0273C50.8633 31.0013 51.0586 31.0469 51.2539 31.1641C51.4492 31.2812 51.6185 31.4375 51.7617 31.6328C51.9049 31.8151 52.0091 32.0234 52.0742 32.2578C52.1523 32.4922 52.1654 32.7135 52.1133 32.9219C51.931 33.4557 51.6706 34.0807 51.332 34.7969C50.9935 35.513 50.5638 36.1901 50.043 36.8281C49.5221 37.4661 48.9102 38.0065 48.207 38.4492C47.5039 38.8919 46.6966 39.1133 45.7852 39.1133C45.0039 39.1133 44.2878 38.9115 43.6367 38.5078C42.9987 38.1042 42.4453 37.5964 41.9766 36.9844C41.5208 36.3724 41.1693 35.7018 40.9219 34.9727C40.6745 34.2435 40.5508 33.5469 40.5508 32.8828C40.5508 32.6745 40.6419 32.4661 40.8242 32.2578C41.0065 32.0365 41.2344 31.8021 41.5078 31.5547C41.7943 31.2943 42.0938 31.0078 42.4062 30.6953C42.7318 30.3828 43.0312 30.0312 43.3047 29.6406C43.5911 29.25 43.8255 28.8138 44.0078 28.332C44.1901 27.8372 44.2812 27.2839 44.2812 26.6719C44.2812 26.1771 44.1576 25.7734 43.9102 25.4609C43.6758 25.1484 43.3698 24.9922 42.9922 24.9922C42.7578 24.9922 42.4714 25.0833 42.1328 25.2656C41.8073 25.4349 41.4622 25.7344 41.0977 26.1641C40.7331 26.5938 40.3685 27.1667 40.0039 27.8828C39.6393 28.5859 39.3008 29.4648 38.9883 30.5195V37.3945C38.9883 37.5898 38.9818 37.7917 38.9688 38C38.9688 38.1953 38.9297 38.3711 38.8516 38.5273C38.7865 38.6966 38.6758 38.8333 38.5195 38.9375C38.3763 39.0547 38.1615 39.1133 37.875 39.1133C37.6797 39.1133 37.4648 39.0872 37.2305 39.0352C37.0091 38.9961 36.8008 38.9115 36.6055 38.7812C36.4232 38.6641 36.2669 38.4883 36.1367 38.2539C36.0195 38.0326 35.9609 37.7331 35.9609 37.3555V13.3516ZM59.1836 26.3594C59.1836 27.1016 59.0534 27.8633 58.793 28.6445C58.5456 29.4258 58.168 30.168 57.6602 30.8711C57.1654 31.5612 56.5469 32.1862 55.8047 32.7461C55.0755 33.293 54.2292 33.7096 53.2656 33.9961C53.3958 34.3346 53.5651 34.6602 53.7734 34.9727C53.9948 35.2721 54.2552 35.5326 54.5547 35.7539C54.8542 35.9753 55.1992 36.151 55.5898 36.2812C55.9935 36.4115 56.4557 36.4766 56.9766 36.4766C57.7578 36.4766 58.4284 36.3333 58.9883 36.0469C59.5482 35.7474 60.0169 35.3568 60.3945 34.875C60.7852 34.3932 61.0977 33.8529 61.332 33.2539C61.5664 32.6549 61.7422 32.0495 61.8594 31.4375C61.9505 30.9948 62.1328 30.7018 62.4062 30.5586C62.6927 30.4023 62.9792 30.3633 63.2656 30.4414C63.5651 30.5195 63.819 30.6888 64.0273 30.9492C64.2487 31.1966 64.3398 31.4961 64.3008 31.8477C64.2487 32.2513 64.1576 32.7135 64.0273 33.2344C63.9102 33.7552 63.7279 34.2826 63.4805 34.8164C63.2331 35.3503 62.9141 35.8776 62.5234 36.3984C62.1458 36.9062 61.6771 37.362 61.1172 37.7656C60.5573 38.1693 59.8997 38.4948 59.1445 38.7422C58.3893 38.9896 57.5234 39.1133 56.5469 39.1133C55.6354 39.1133 54.75 38.931 53.8906 38.5664C53.0443 38.2148 52.2891 37.707 51.625 37.043C50.974 36.3659 50.4466 35.5391 50.043 34.5625C49.6523 33.5729 49.457 32.4531 49.457 31.2031C49.457 29.9401 49.6328 28.7682 49.9844 27.6875C50.3359 26.5938 50.7982 25.6497 51.3711 24.8555C51.944 24.0612 52.5951 23.4427 53.3242 23C54.0534 22.5443 54.8021 22.3164 55.5703 22.3164C56.1302 22.3164 56.6315 22.4141 57.0742 22.6094C57.5299 22.8047 57.9141 23.0846 58.2266 23.4492C58.5391 23.8008 58.7734 24.224 58.9297 24.7188C59.099 25.2135 59.1836 25.7604 59.1836 26.3594ZM52.7383 31.0859C52.7383 31.2031 52.7448 31.3203 52.7578 31.4375C52.7708 31.5547 52.7773 31.6784 52.7773 31.8086C53.2721 31.5742 53.7214 31.2747 54.125 30.9102C54.5286 30.5456 54.8737 30.1289 55.1602 29.6602C55.4466 29.1914 55.668 28.6836 55.8242 28.1367C55.9805 27.5768 56.0586 26.9974 56.0586 26.3984C56.0586 25.9557 55.9805 25.6107 55.8242 25.3633C55.681 25.1159 55.4792 24.9922 55.2188 24.9922C54.8932 24.9922 54.6003 25.1029 54.3398 25.3242C54.0924 25.5456 53.8711 25.8385 53.6758 26.2031C53.4935 26.5547 53.3372 26.9583 53.207 27.4141C53.0898 27.8568 52.9922 28.306 52.9141 28.7617C52.8359 29.2174 52.7839 29.6536 52.7578 30.0703C52.7318 30.474 52.7253 30.8125 52.7383 31.0859ZM64.8867 26.1641C65.0299 25.8906 65.1667 25.526 65.2969 25.0703C65.4401 24.6016 65.5703 24.0872 65.6875 23.5273C65.8177 22.9674 65.9349 22.3815 66.0391 21.7695C66.1432 21.1576 66.2344 20.5586 66.3125 19.9727C66.3906 19.3867 66.4492 18.8398 66.4883 18.332C66.5404 17.8112 66.5664 17.3685 66.5664 17.0039C66.5664 15.6758 66.4688 14.7057 66.2734 14.0938C66.0781 13.4688 65.8177 13.1562 65.4922 13.1562C65.388 13.1562 65.2969 13.2083 65.2188 13.3125C65.1406 13.4167 65.0755 13.5534 65.0234 13.7227C64.9714 13.8789 64.9323 14.0547 64.9062 14.25C64.8932 14.4323 64.8867 14.6016 64.8867 14.7578V26.1641ZM70.5703 32.1992C70.6484 31.8086 70.7656 31.5286 70.9219 31.3594C71.0911 31.1771 71.2669 31.0794 71.4492 31.0664C71.6445 31.0404 71.8398 31.0859 72.0352 31.2031C72.2305 31.3073 72.3997 31.4505 72.543 31.6328C72.6862 31.8151 72.7904 32.0234 72.8555 32.2578C72.9336 32.4792 72.9466 32.7005 72.8945 32.9219C72.7122 33.4557 72.4518 34.0807 72.1133 34.7969C71.7747 35.513 71.3451 36.1901 70.8242 36.8281C70.3034 37.4661 69.6914 38.0065 68.9883 38.4492C68.2852 38.8919 67.4779 39.1133 66.5664 39.1133C65.7982 39.1133 65.1211 38.9831 64.5352 38.7227C63.9492 38.4753 63.4544 38.1237 63.0508 37.668C62.6602 37.1992 62.3607 36.6458 62.1523 36.0078C61.957 35.3568 61.8594 34.6341 61.8594 33.8398V15.6367C61.8594 14.8945 61.9505 14.2109 62.1328 13.5859C62.3281 12.9479 62.5885 12.4076 62.9141 11.9648C63.2526 11.5091 63.6432 11.1576 64.0859 10.9102C64.5286 10.6497 64.9974 10.5195 65.4922 10.5195C66.0781 10.5195 66.5729 10.6302 66.9766 10.8516C67.3802 11.0599 67.7122 11.3398 67.9727 11.6914C68.2331 12.043 68.4349 12.4466 68.5781 12.9023C68.7344 13.3581 68.8451 13.8268 68.9102 14.3086C68.9753 14.7773 69.0143 15.2461 69.0273 15.7148C69.0404 16.1706 69.0469 16.5872 69.0469 16.9648C69.0469 17.9414 68.9557 18.9701 68.7734 20.0508C68.5911 21.1185 68.3568 22.1732 68.0703 23.2148C67.7969 24.2565 67.4909 25.2591 67.1523 26.2227C66.8268 27.1732 66.5078 28.0195 66.1953 28.7617C65.8958 29.5039 65.6224 30.1094 65.375 30.5781C65.1406 31.0469 64.9779 31.3203 64.8867 31.3984V33.7227C64.8867 34.5299 65.056 35.194 65.3945 35.7148C65.7331 36.2227 66.2734 36.4766 67.0156 36.4766C67.4714 36.4766 67.8945 36.3398 68.2852 36.0664C68.6888 35.7799 69.0404 35.4284 69.3398 35.0117C69.6523 34.582 69.9128 34.1198 70.1211 33.625C70.3294 33.1172 70.4792 32.6419 70.5703 32.1992ZM70.6875 24.6797C70.6875 24.3021 70.6549 24.0286 70.5898 23.8594C70.5378 23.6901 70.5117 23.5339 70.5117 23.3906C70.5117 23.1953 70.6159 23.0391 70.8242 22.9219C71.0326 22.7917 71.2799 22.7266 71.5664 22.7266C72.2305 22.7266 72.7513 22.9023 73.1289 23.2539C73.5195 23.5924 73.7148 24.0026 73.7148 24.4844V26.2812C73.9883 25.7214 74.2812 25.2005 74.5938 24.7188C74.9193 24.237 75.2643 23.8203 75.6289 23.4688C76.0065 23.1042 76.4036 22.8242 76.8203 22.6289C77.25 22.4206 77.7122 22.3164 78.207 22.3164C78.8711 22.3164 79.418 22.4401 79.8477 22.6875C80.2773 22.9349 80.6159 23.2539 80.8633 23.6445C81.1107 24.0352 81.2799 24.4714 81.3711 24.9531C81.4753 25.4349 81.5273 25.9036 81.5273 26.3594V34.6406C81.5273 34.7318 81.5339 34.8815 81.5469 35.0898C81.5599 35.2852 81.599 35.487 81.6641 35.6953C81.7292 35.9036 81.8268 36.0859 81.957 36.2422C82.1003 36.3984 82.3021 36.4766 82.5625 36.4766C82.9661 36.4766 83.3112 36.3333 83.5977 36.0469C83.8971 35.7604 84.151 35.4023 84.3594 34.9727C84.5807 34.543 84.7565 34.0807 84.8867 33.5859C85.0299 33.0781 85.1471 32.6029 85.2383 32.1602C85.3164 31.7435 85.4466 31.444 85.6289 31.2617C85.8112 31.0664 86 30.9688 86.1953 30.9688C86.3516 30.9688 86.5143 31.0208 86.6836 31.125C86.8529 31.2161 87.0026 31.3398 87.1328 31.4961C87.276 31.6523 87.3867 31.8281 87.4648 32.0234C87.556 32.2188 87.6016 32.4141 87.6016 32.6094C87.6016 32.6354 87.6016 32.668 87.6016 32.707C87.6016 32.7461 87.5885 32.8047 87.5625 32.8828C87.3932 33.5469 87.1589 34.2435 86.8594 34.9727C86.5729 35.7018 86.1953 36.3724 85.7266 36.9844C85.2708 37.5964 84.724 38.1042 84.0859 38.5078C83.4479 38.9115 82.6992 39.1133 81.8398 39.1133C81.306 39.1133 80.8307 39.0091 80.4141 38.8008C80.0104 38.6055 79.6589 38.3385 79.3594 38C79.0729 37.6615 78.8516 37.2643 78.6953 36.8086C78.5521 36.3529 78.4805 35.8711 78.4805 35.3633V27.2383C78.4805 26.9258 78.474 26.6328 78.4609 26.3594C78.4479 26.0859 78.4089 25.8451 78.3438 25.6367C78.2917 25.4284 78.207 25.2656 78.0898 25.1484C77.9857 25.0182 77.8359 24.9531 77.6406 24.9531C77.3542 24.9531 77.0026 25.1484 76.5859 25.5391C76.1693 25.9297 75.7591 26.4375 75.3555 27.0625C74.9518 27.6875 74.5938 28.3971 74.2812 29.1914C73.9818 29.9727 73.793 30.7604 73.7148 31.5547V37.3945C73.7148 37.5898 73.7083 37.7917 73.6953 38C73.6953 38.1953 73.6562 38.3711 73.5781 38.5273C73.513 38.6966 73.4023 38.8333 73.2461 38.9375C73.1029 39.0547 72.888 39.1133 72.6016 39.1133C72.4062 39.1133 72.1914 39.0872 71.957 39.0352C71.7357 38.9961 71.5273 38.9115 71.332 38.7812C71.1497 38.6641 70.9935 38.4883 70.8633 38.2539C70.7461 38.0326 70.6875 37.7331 70.6875 37.3555V24.6797ZM96.4492 36.4766C96.8529 36.4766 97.1979 36.3333 97.4844 36.0469C97.7839 35.7604 98.0378 35.4023 98.2461 34.9727C98.4674 34.543 98.6432 34.0807 98.7734 33.5859C98.9167 33.0781 99.0339 32.6029 99.125 32.1602C99.2161 31.7435 99.3464 31.444 99.5156 31.2617C99.6979 31.0664 99.8932 30.9688 100.102 30.9688C100.258 30.9688 100.414 31.0208 100.57 31.125C100.74 31.2161 100.889 31.3398 101.02 31.4961C101.163 31.6523 101.273 31.8281 101.352 32.0234C101.443 32.2188 101.488 32.4141 101.488 32.6094C101.488 32.6354 101.488 32.668 101.488 32.707C101.488 32.7461 101.475 32.8047 101.449 32.8828C101.28 33.5469 101.046 34.2435 100.746 34.9727C100.46 35.7018 100.089 36.3724 99.6328 36.9844C99.1771 37.5964 98.6237 38.1042 97.9727 38.5078C97.3346 38.9115 96.5859 39.1133 95.7266 39.1133C95.0234 39.1133 94.4115 38.9635 93.8906 38.6641C93.3698 38.3646 92.9596 37.9674 92.6602 37.4727C92.2565 37.9284 91.7682 38.3125 91.1953 38.625C90.6354 38.9505 89.9779 39.1133 89.2227 39.1133C88.4414 39.1133 87.7513 38.957 87.1523 38.6445C86.5664 38.332 86.0716 37.9089 85.668 37.375C85.2643 36.8281 84.9583 36.1901 84.75 35.4609C84.5547 34.7188 84.457 33.9245 84.457 33.0781C84.457 31.4115 84.724 29.9141 85.2578 28.5859C85.7917 27.2578 86.5013 26.1315 87.3867 25.207C88.2721 24.2695 89.2812 23.5534 90.4141 23.0586C91.5599 22.5638 92.7448 22.3164 93.9688 22.3164C94.5156 22.3164 94.9583 22.4661 95.2969 22.7656C95.6354 23.0651 95.8047 23.4753 95.8047 23.9961C95.8047 24.3346 95.7656 24.5755 95.6875 24.7188C95.6224 24.849 95.4922 24.9141 95.2969 24.9141C95.1146 24.9141 94.9258 24.901 94.7305 24.875C94.5352 24.849 94.3333 24.8359 94.125 24.8359C93.3698 24.8359 92.6016 25.0052 91.8203 25.3438C91.0391 25.6693 90.3294 26.1771 89.6914 26.8672C89.0664 27.5443 88.5521 28.4102 88.1484 29.4648C87.7448 30.5065 87.543 31.75 87.543 33.1953C87.543 34.25 87.7448 35.0638 88.1484 35.6367C88.5521 36.1966 89.1055 36.4766 89.8086 36.4766C90.3555 36.4766 90.8112 36.2747 91.1758 35.8711C91.5404 35.4544 91.8333 34.9661 92.0547 34.4062V28.2344C92.0547 28.0391 92.0417 27.8763 92.0156 27.7461C92.0026 27.6159 91.9831 27.5052 91.957 27.4141C91.944 27.3229 91.931 27.2448 91.918 27.1797C91.9049 27.1016 91.8984 27.0299 91.8984 26.9648C91.8984 26.7565 91.9961 26.5938 92.1914 26.4766C92.3997 26.3464 92.6471 26.2812 92.9336 26.2812C93.5977 26.2812 94.125 26.457 94.5156 26.8086C94.9062 27.1471 95.1016 27.5573 95.1016 28.0391V34.6406C95.1016 34.862 95.1276 35.0833 95.1797 35.3047C95.2318 35.513 95.3099 35.7083 95.4141 35.8906C95.5182 36.0599 95.6549 36.2031 95.8242 36.3203C96.0065 36.4245 96.2148 36.4766 96.4492 36.4766Z" fill="#ED4040"/>
<path d="M108.148 13.3516C108.148 13.0651 108.122 12.8372 108.07 12.668C108.031 12.4987 107.986 12.3685 107.934 12.2773C107.895 12.1732 107.849 12.0951 107.797 12.043C107.758 11.9779 107.738 11.9128 107.738 11.8477C107.738 11.7695 107.777 11.7044 107.855 11.6523C107.934 11.6003 108.038 11.5547 108.168 11.5156C108.298 11.4766 108.435 11.4505 108.578 11.4375C108.734 11.4115 108.884 11.3984 109.027 11.3984C109.691 11.3984 110.212 11.5742 110.59 11.9258C110.98 12.2643 111.176 12.6745 111.176 13.1562V25.6367C111.501 25.194 111.84 24.7773 112.191 24.3867C112.556 23.9831 112.934 23.6315 113.324 23.332C113.715 23.0195 114.118 22.7721 114.535 22.5898C114.965 22.4076 115.408 22.3164 115.863 22.3164C116.488 22.3164 117.022 22.4401 117.465 22.6875C117.908 22.9219 118.272 23.2409 118.559 23.6445C118.858 24.0482 119.073 24.5104 119.203 25.0312C119.346 25.5391 119.418 26.0729 119.418 26.6328C119.418 27.401 119.294 28.1237 119.047 28.8008C118.799 29.4648 118.487 30.0703 118.109 30.6172C117.732 31.1641 117.315 31.6523 116.859 32.082C116.417 32.5117 115.993 32.8698 115.59 33.1562C115.681 33.5859 115.805 34.0026 115.961 34.4062C116.13 34.7969 116.332 35.1484 116.566 35.4609C116.801 35.7734 117.068 36.0208 117.367 36.2031C117.68 36.3854 118.031 36.4766 118.422 36.4766C118.878 36.4766 119.301 36.3398 119.691 36.0664C120.095 35.7799 120.447 35.4284 120.746 35.0117C121.059 34.582 121.319 34.1198 121.527 33.625C121.736 33.1172 121.885 32.6419 121.977 32.1992C122.055 31.7956 122.172 31.5026 122.328 31.3203C122.497 31.138 122.673 31.0404 122.855 31.0273C123.051 31.0013 123.246 31.0469 123.441 31.1641C123.637 31.2812 123.806 31.4375 123.949 31.6328C124.092 31.8151 124.197 32.0234 124.262 32.2578C124.34 32.4922 124.353 32.7135 124.301 32.9219C124.118 33.4557 123.858 34.0807 123.52 34.7969C123.181 35.513 122.751 36.1901 122.23 36.8281C121.71 37.4661 121.098 38.0065 120.395 38.4492C119.691 38.8919 118.884 39.1133 117.973 39.1133C117.191 39.1133 116.475 38.9115 115.824 38.5078C115.186 38.1042 114.633 37.5964 114.164 36.9844C113.708 36.3724 113.357 35.7018 113.109 34.9727C112.862 34.2435 112.738 33.5469 112.738 32.8828C112.738 32.6745 112.829 32.4661 113.012 32.2578C113.194 32.0365 113.422 31.8021 113.695 31.5547C113.982 31.2943 114.281 31.0078 114.594 30.6953C114.919 30.3828 115.219 30.0312 115.492 29.6406C115.779 29.25 116.013 28.8138 116.195 28.332C116.378 27.8372 116.469 27.2839 116.469 26.6719C116.469 26.1771 116.345 25.7734 116.098 25.4609C115.863 25.1484 115.557 24.9922 115.18 24.9922C114.945 24.9922 114.659 25.0833 114.32 25.2656C113.995 25.4349 113.65 25.7344 113.285 26.1641C112.921 26.5938 112.556 27.1667 112.191 27.8828C111.827 28.5859 111.488 29.4648 111.176 30.5195V37.3945C111.176 37.5898 111.169 37.7917 111.156 38C111.156 38.1953 111.117 38.3711 111.039 38.5273C110.974 38.6966 110.863 38.8333 110.707 38.9375C110.564 39.0547 110.349 39.1133 110.062 39.1133C109.867 39.1133 109.652 39.0872 109.418 39.0352C109.197 38.9961 108.988 38.9115 108.793 38.7812C108.611 38.6641 108.454 38.4883 108.324 38.2539C108.207 38.0326 108.148 37.7331 108.148 37.3555V13.3516ZM133.168 39.1133C132.712 39.1133 132.296 39.0417 131.918 38.8984C131.553 38.7552 131.228 38.5534 130.941 38.293C130.668 38.0456 130.44 37.7526 130.258 37.4141C130.076 37.0625 129.952 36.6849 129.887 36.2812C129.405 37.1276 128.839 37.8177 128.188 38.3516C127.536 38.8854 126.768 39.1523 125.883 39.1523C125.219 39.1523 124.62 39.0156 124.086 38.7422C123.565 38.4688 123.122 38.0846 122.758 37.5898C122.393 37.082 122.113 36.4766 121.918 35.7734C121.736 35.0573 121.645 34.263 121.645 33.3906C121.645 32.3359 121.716 31.2747 121.859 30.207C122.016 29.1393 122.185 28.1758 122.367 27.3164C122.576 26.3138 122.816 25.3438 123.09 24.4062C123.155 24.237 123.201 24.0677 123.227 23.8984C123.266 23.7161 123.344 23.5534 123.461 23.4102C123.578 23.2669 123.76 23.1497 124.008 23.0586C124.268 22.9674 124.665 22.9219 125.199 22.9219C125.694 22.9219 126.013 23.013 126.156 23.1953C126.299 23.3646 126.352 23.5664 126.312 23.8008C126.286 24.0352 126.208 24.276 126.078 24.5234C125.961 24.7708 125.883 24.9727 125.844 25.1289C125.661 25.8711 125.499 26.5482 125.355 27.1602C125.212 27.7721 125.089 28.3906 124.984 29.0156C124.893 29.6276 124.822 30.2721 124.77 30.9492C124.717 31.6133 124.691 32.362 124.691 33.1953C124.691 34.2891 124.848 35.1159 125.16 35.6758C125.486 36.2357 125.941 36.5156 126.527 36.5156C126.931 36.5156 127.302 36.3659 127.641 36.0664C127.992 35.7669 128.305 35.3698 128.578 34.875C128.865 34.3672 129.112 33.7943 129.32 33.1562C129.529 32.5052 129.691 31.8281 129.809 31.125V24.6797C129.809 24.3932 129.783 24.1654 129.73 23.9961C129.691 23.8268 129.646 23.6966 129.594 23.6055C129.555 23.5013 129.509 23.4232 129.457 23.3711C129.418 23.306 129.398 23.2344 129.398 23.1562C129.398 23.0911 129.438 23.0326 129.516 22.9805C129.594 22.9284 129.698 22.8828 129.828 22.8438C129.958 22.8047 130.095 22.7786 130.238 22.7656C130.395 22.7396 130.544 22.7266 130.688 22.7266C131.352 22.7266 131.872 22.9023 132.25 23.2539C132.641 23.5924 132.836 24.0026 132.836 24.4844V34.6406C132.836 34.7318 132.842 34.8815 132.855 35.0898C132.868 35.2852 132.908 35.487 132.973 35.6953C133.038 35.9036 133.142 36.0859 133.285 36.2422C133.428 36.3984 133.63 36.4766 133.891 36.4766C134.294 36.4766 134.639 36.3333 134.926 36.0469C135.225 35.7604 135.479 35.4023 135.688 34.9727C135.909 34.543 136.085 34.0807 136.215 33.5859C136.358 33.0781 136.475 32.6029 136.566 32.1602C136.645 31.7435 136.775 31.444 136.957 31.2617C137.139 31.0664 137.328 30.9688 137.523 30.9688C137.68 30.9688 137.842 31.0208 138.012 31.125C138.181 31.2161 138.331 31.3398 138.461 31.4961C138.604 31.6523 138.715 31.8281 138.793 32.0234C138.884 32.2188 138.93 32.4141 138.93 32.6094C138.93 32.6354 138.93 32.668 138.93 32.707C138.93 32.7461 138.917 32.8047 138.891 32.8828C138.708 33.5469 138.467 34.2435 138.168 34.9727C137.882 35.7018 137.51 36.3724 137.055 36.9844C136.599 37.5964 136.052 38.1042 135.414 38.5078C134.776 38.9115 134.027 39.1133 133.168 39.1133ZM143.129 39.1133C142.243 39.1133 141.384 38.9505 140.551 38.625C139.717 38.2995 138.975 37.8177 138.324 37.1797C137.686 36.5417 137.172 35.7539 136.781 34.8164C136.404 33.8789 136.215 32.7917 136.215 31.5547C136.215 30.4089 136.378 29.2826 136.703 28.1758C137.029 27.069 137.478 26.0859 138.051 25.2266C138.624 24.3542 139.307 23.651 140.102 23.1172C140.909 22.5833 141.788 22.3164 142.738 22.3164C143.428 22.3164 144.014 22.4596 144.496 22.7461C144.978 23.0195 145.368 23.3581 145.668 23.7617C145.967 24.1523 146.182 24.5755 146.312 25.0312C146.456 25.487 146.527 25.8906 146.527 26.2422C146.527 26.5026 146.456 26.737 146.312 26.9453C146.182 27.1536 146.02 27.3294 145.824 27.4727C145.629 27.6159 145.414 27.7266 145.18 27.8047C144.945 27.8698 144.737 27.8958 144.555 27.8828C144.372 27.8698 144.223 27.8047 144.105 27.6875C144.001 27.5703 143.969 27.3945 144.008 27.1602C143.956 26.9909 143.904 26.7826 143.852 26.5352C143.812 26.2878 143.734 26.0534 143.617 25.832C143.513 25.5977 143.363 25.4023 143.168 25.2461C142.973 25.0768 142.706 24.9922 142.367 24.9922C142.003 24.9922 141.645 25.168 141.293 25.5195C140.954 25.8581 140.648 26.3268 140.375 26.9258C140.115 27.5247 139.9 28.2214 139.73 29.0156C139.574 29.8099 139.496 30.6562 139.496 31.5547C139.496 32.349 139.594 33.0521 139.789 33.6641C139.997 34.276 140.284 34.7904 140.648 35.207C141.013 35.6237 141.443 35.9427 141.938 36.1641C142.445 36.3724 142.992 36.4766 143.578 36.4766C144.359 36.4766 145.036 36.3333 145.609 36.0469C146.195 35.7474 146.69 35.3568 147.094 34.875C147.497 34.3932 147.823 33.8529 148.07 33.2539C148.318 32.6549 148.5 32.0495 148.617 31.4375C148.708 30.9948 148.891 30.7018 149.164 30.5586C149.451 30.4023 149.737 30.3633 150.023 30.4414C150.323 30.5195 150.577 30.6888 150.785 30.9492C151.007 31.1966 151.098 31.4961 151.059 31.8477C151.007 32.2513 150.909 32.7135 150.766 33.2344C150.635 33.7552 150.44 34.2826 150.18 34.8164C149.919 35.3503 149.587 35.8776 149.184 36.3984C148.793 36.9062 148.311 37.362 147.738 37.7656C147.165 38.1693 146.495 38.4948 145.727 38.7422C144.971 38.9896 144.105 39.1133 143.129 39.1133ZM148.617 13.3516C148.617 13.0651 148.591 12.8372 148.539 12.668C148.5 12.4987 148.454 12.3685 148.402 12.2773C148.363 12.1732 148.318 12.0951 148.266 12.043C148.227 11.9779 148.207 11.9128 148.207 11.8477C148.207 11.7695 148.246 11.7044 148.324 11.6523C148.402 11.6003 148.507 11.5547 148.637 11.5156C148.767 11.4766 148.904 11.4505 149.047 11.4375C149.203 11.4115 149.353 11.3984 149.496 11.3984C150.16 11.3984 150.681 11.5742 151.059 11.9258C151.449 12.2643 151.645 12.6745 151.645 13.1562V26.2812C151.918 25.7214 152.211 25.2005 152.523 24.7188C152.849 24.237 153.194 23.8203 153.559 23.4688C153.936 23.1042 154.333 22.8242 154.75 22.6289C155.18 22.4206 155.642 22.3164 156.137 22.3164C156.801 22.3164 157.348 22.4401 157.777 22.6875C158.207 22.9349 158.546 23.2539 158.793 23.6445C159.04 24.0352 159.21 24.4714 159.301 24.9531C159.405 25.4349 159.457 25.9036 159.457 26.3594V34.6406C159.457 34.7318 159.464 34.8815 159.477 35.0898C159.49 35.2852 159.529 35.487 159.594 35.6953C159.659 35.9036 159.757 36.0859 159.887 36.2422C160.03 36.3984 160.232 36.4766 160.492 36.4766C160.896 36.4766 161.241 36.3333 161.527 36.0469C161.827 35.7604 162.081 35.4023 162.289 34.9727C162.51 34.543 162.686 34.0807 162.816 33.5859C162.96 33.0781 163.077 32.6029 163.168 32.1602C163.246 31.7565 163.363 31.4635 163.52 31.2812C163.689 31.099 163.865 31.0013 164.047 30.9883C164.242 30.9622 164.438 31.0078 164.633 31.125C164.828 31.2422 164.997 31.3984 165.141 31.5938C165.284 31.776 165.388 31.9844 165.453 32.2188C165.531 32.4531 165.544 32.6745 165.492 32.8828C165.31 33.5469 165.069 34.2435 164.77 34.9727C164.483 35.7018 164.112 36.3724 163.656 36.9844C163.201 37.5964 162.654 38.1042 162.016 38.5078C161.378 38.9115 160.629 39.1133 159.77 39.1133C159.236 39.1133 158.76 39.0091 158.344 38.8008C157.94 38.6055 157.589 38.3385 157.289 38C157.003 37.6615 156.781 37.2643 156.625 36.8086C156.482 36.3529 156.41 35.8711 156.41 35.3633V27.2383C156.41 26.9258 156.404 26.6328 156.391 26.3594C156.378 26.0859 156.339 25.8451 156.273 25.6367C156.221 25.4284 156.137 25.2656 156.02 25.1484C155.915 25.0182 155.766 24.9531 155.57 24.9531C155.284 24.9531 154.932 25.1484 154.516 25.5391C154.099 25.9297 153.689 26.4375 153.285 27.0625C152.882 27.6875 152.523 28.3971 152.211 29.1914C151.911 29.9727 151.723 30.7604 151.645 31.5547V37.3945C151.645 37.5898 151.638 37.7917 151.625 38C151.625 38.1953 151.586 38.3711 151.508 38.5273C151.443 38.6966 151.332 38.8333 151.176 38.9375C151.033 39.0547 150.818 39.1133 150.531 39.1133C150.336 39.1133 150.121 39.0872 149.887 39.0352C149.665 38.9961 149.457 38.9115 149.262 38.7812C149.079 38.6641 148.923 38.4883 148.793 38.2539C148.676 38.0326 148.617 37.7331 148.617 37.3555V13.3516ZM174.652 36.4766C175.056 36.4766 175.401 36.3333 175.688 36.0469C175.987 35.7604 176.241 35.4023 176.449 34.9727C176.671 34.543 176.846 34.0807 176.977 33.5859C177.12 33.0781 177.237 32.6029 177.328 32.1602C177.419 31.7435 177.549 31.444 177.719 31.2617C177.901 31.0664 178.096 30.9688 178.305 30.9688C178.461 30.9688 178.617 31.0208 178.773 31.125C178.943 31.2161 179.092 31.3398 179.223 31.4961C179.366 31.6523 179.477 31.8281 179.555 32.0234C179.646 32.2188 179.691 32.4141 179.691 32.6094C179.691 32.6354 179.691 32.668 179.691 32.707C179.691 32.7461 179.678 32.8047 179.652 32.8828C179.483 33.5469 179.249 34.2435 178.949 34.9727C178.663 35.7018 178.292 36.3724 177.836 36.9844C177.38 37.5964 176.827 38.1042 176.176 38.5078C175.538 38.9115 174.789 39.1133 173.93 39.1133C173.227 39.1133 172.615 38.9635 172.094 38.6641C171.573 38.3646 171.163 37.9674 170.863 37.4727C170.46 37.9284 169.971 38.3125 169.398 38.625C168.839 38.9505 168.181 39.1133 167.426 39.1133C166.645 39.1133 165.954 38.957 165.355 38.6445C164.77 38.332 164.275 37.9089 163.871 37.375C163.467 36.8281 163.161 36.1901 162.953 35.4609C162.758 34.7188 162.66 33.9245 162.66 33.0781C162.66 31.4115 162.927 29.9141 163.461 28.5859C163.995 27.2578 164.704 26.1315 165.59 25.207C166.475 24.2695 167.484 23.5534 168.617 23.0586C169.763 22.5638 170.948 22.3164 172.172 22.3164C172.719 22.3164 173.161 22.4661 173.5 22.7656C173.839 23.0651 174.008 23.4753 174.008 23.9961C174.008 24.3346 173.969 24.5755 173.891 24.7188C173.826 24.849 173.695 24.9141 173.5 24.9141C173.318 24.9141 173.129 24.901 172.934 24.875C172.738 24.849 172.536 24.8359 172.328 24.8359C171.573 24.8359 170.805 25.0052 170.023 25.3438C169.242 25.6693 168.533 26.1771 167.895 26.8672C167.27 27.5443 166.755 28.4102 166.352 29.4648C165.948 30.5065 165.746 31.75 165.746 33.1953C165.746 34.25 165.948 35.0638 166.352 35.6367C166.755 36.1966 167.309 36.4766 168.012 36.4766C168.559 36.4766 169.014 36.2747 169.379 35.8711C169.743 35.4544 170.036 34.9661 170.258 34.4062V28.2344C170.258 28.0391 170.245 27.8763 170.219 27.7461C170.206 27.6159 170.186 27.5052 170.16 27.4141C170.147 27.3229 170.134 27.2448 170.121 27.1797C170.108 27.1016 170.102 27.0299 170.102 26.9648C170.102 26.7565 170.199 26.5938 170.395 26.4766C170.603 26.3464 170.85 26.2812 171.137 26.2812C171.801 26.2812 172.328 26.457 172.719 26.8086C173.109 27.1471 173.305 27.5573 173.305 28.0391V34.6406C173.305 34.862 173.331 35.0833 173.383 35.3047C173.435 35.513 173.513 35.7083 173.617 35.8906C173.721 36.0599 173.858 36.2031 174.027 36.3203C174.21 36.4245 174.418 36.4766 174.652 36.4766ZM186.234 39.1133C185.766 39.1133 185.284 39.0417 184.789 38.8984C184.307 38.7552 183.865 38.5078 183.461 38.1562C183.07 37.8047 182.745 37.3424 182.484 36.7695C182.237 36.1836 182.113 35.4479 182.113 34.5625C182.113 33.2734 182.283 31.9128 182.621 30.4805C182.973 29.0352 183.474 27.4466 184.125 25.7148H181.078H180.629C180.616 26.1055 180.59 26.6003 180.551 27.1992C180.525 27.7982 180.473 28.4362 180.395 29.1133C180.316 29.7904 180.212 30.474 180.082 31.1641C179.965 31.8542 179.815 32.4922 179.633 33.0781C179.503 33.4948 179.294 33.7357 179.008 33.8008C178.734 33.8659 178.461 33.8203 178.188 33.6641C177.914 33.4948 177.693 33.2539 177.523 32.9414C177.354 32.6289 177.315 32.3034 177.406 31.9648C177.51 31.5612 177.602 31.0729 177.68 30.5C177.758 29.9141 177.816 29.3021 177.855 28.6641C177.908 28.013 177.947 27.3685 177.973 26.7305C177.999 26.0794 178.018 25.5 178.031 24.9922C177.536 24.7188 177.126 24.3737 176.801 23.957C176.475 23.5273 176.312 23.0195 176.312 22.4336C176.312 22.1602 176.365 21.9128 176.469 21.6914C176.586 21.457 176.736 21.2617 176.918 21.1055C177.1 20.9362 177.315 20.8125 177.562 20.7344C177.81 20.6432 178.064 20.5977 178.324 20.5977C178.559 20.5977 178.799 20.6302 179.047 20.6953C179.307 20.7604 179.548 20.8776 179.77 21.0469C180.004 21.2161 180.212 21.4375 180.395 21.7109C180.577 21.9844 180.727 22.3229 180.844 22.7266C181.169 22.7656 181.443 22.7982 181.664 22.8242C181.898 22.8372 182.094 22.8503 182.25 22.8633C182.406 22.8763 182.536 22.8828 182.641 22.8828C182.745 22.8828 182.849 22.8828 182.953 22.8828H185.043C185.16 22.8828 185.329 22.9544 185.551 23.0977C185.785 23.2409 186.013 23.4297 186.234 23.6641C186.456 23.8854 186.638 24.1263 186.781 24.3867C186.938 24.6471 186.996 24.8945 186.957 25.1289C186.957 25.207 186.911 25.3958 186.82 25.6953C186.729 25.9948 186.618 26.3724 186.488 26.8281C186.358 27.2839 186.215 27.8112 186.059 28.4102C185.902 28.9961 185.759 29.6146 185.629 30.2656C185.499 30.9167 185.388 31.5938 185.297 32.2969C185.206 32.987 185.16 33.6641 185.16 34.3281C185.16 34.6016 185.193 34.8685 185.258 35.1289C185.323 35.3893 185.421 35.6237 185.551 35.832C185.681 36.0273 185.844 36.1836 186.039 36.3008C186.247 36.418 186.488 36.4766 186.762 36.4766C187.217 36.4766 187.608 36.3333 187.934 36.0469C188.259 35.7604 188.533 35.4023 188.754 34.9727C188.975 34.543 189.151 34.0807 189.281 33.5859C189.424 33.0781 189.542 32.6029 189.633 32.1602C189.711 31.7435 189.841 31.444 190.023 31.2617C190.206 31.0664 190.395 30.9688 190.59 30.9688C190.746 30.9688 190.909 31.0208 191.078 31.125C191.247 31.2161 191.397 31.3398 191.527 31.4961C191.671 31.6523 191.781 31.8281 191.859 32.0234C191.951 32.2188 191.996 32.4141 191.996 32.6094C191.996 32.6745 191.99 32.7266 191.977 32.7656C191.964 32.8047 191.957 32.8438 191.957 32.8828C191.775 33.5469 191.534 34.2435 191.234 34.9727C190.948 35.7018 190.577 36.3724 190.121 36.9844C189.665 37.5964 189.118 38.1042 188.48 38.5078C187.842 38.9115 187.094 39.1133 186.234 39.1133ZM178.148 14.875C178.057 14.7708 177.979 14.6732 177.914 14.582C177.849 14.4779 177.816 14.3737 177.816 14.2695C177.816 14.0482 177.979 13.8398 178.305 13.6445C178.63 13.4492 179.066 13.3516 179.613 13.3516C179.835 13.3516 180.017 13.3906 180.16 13.4688C180.316 13.5469 180.427 13.638 180.492 13.7422L182.465 16.7891L184.184 14.0352C184.223 13.8659 184.314 13.7096 184.457 13.5664C184.613 13.4232 184.841 13.3516 185.141 13.3516C185.323 13.3516 185.512 13.3906 185.707 13.4688C185.902 13.5339 186.085 13.625 186.254 13.7422C186.423 13.8594 186.56 13.9896 186.664 14.1328C186.768 14.276 186.82 14.4128 186.82 14.543C186.82 14.6341 186.781 14.7383 186.703 14.8555C186.625 14.9727 186.573 15.0443 186.547 15.0703L183.988 18.7422C183.858 19.1068 183.695 19.3802 183.5 19.5625C183.305 19.7448 183.038 19.8359 182.699 19.8359C182.426 19.8359 182.204 19.8164 182.035 19.7773C181.866 19.7383 181.71 19.6732 181.566 19.582C181.436 19.4909 181.312 19.3737 181.195 19.2305C181.078 19.0872 180.941 18.9115 180.785 18.7031L178.148 14.875ZM189.828 13.3516C189.828 13.0651 189.802 12.8372 189.75 12.668C189.711 12.4987 189.665 12.3685 189.613 12.2773C189.574 12.1732 189.529 12.0951 189.477 12.043C189.438 11.9779 189.418 11.9128 189.418 11.8477C189.418 11.7695 189.457 11.7044 189.535 11.6523C189.613 11.6003 189.717 11.5547 189.848 11.5156C189.978 11.4766 190.115 11.4505 190.258 11.4375C190.414 11.4115 190.564 11.3984 190.707 11.3984C191.371 11.3984 191.892 11.5742 192.27 11.9258C192.66 12.2643 192.855 12.6745 192.855 13.1562V25.6367C193.181 25.194 193.52 24.7773 193.871 24.3867C194.236 23.9831 194.613 23.6315 195.004 23.332C195.395 23.0195 195.798 22.7721 196.215 22.5898C196.645 22.4076 197.087 22.3164 197.543 22.3164C198.168 22.3164 198.702 22.4401 199.145 22.6875C199.587 22.9219 199.952 23.2409 200.238 23.6445C200.538 24.0482 200.753 24.5104 200.883 25.0312C201.026 25.5391 201.098 26.0729 201.098 26.6328C201.098 27.401 200.974 28.1237 200.727 28.8008C200.479 29.4648 200.167 30.0703 199.789 30.6172C199.411 31.1641 198.995 31.6523 198.539 32.082C198.096 32.5117 197.673 32.8698 197.27 33.1562C197.361 33.5859 197.484 34.0026 197.641 34.4062C197.81 34.7969 198.012 35.1484 198.246 35.4609C198.48 35.7734 198.747 36.0208 199.047 36.2031C199.359 36.3854 199.711 36.4766 200.102 36.4766C200.557 36.4766 200.98 36.3398 201.371 36.0664C201.775 35.7799 202.126 35.4284 202.426 35.0117C202.738 34.582 202.999 34.1198 203.207 33.625C203.415 33.1172 203.565 32.6419 203.656 32.1992C203.734 31.7956 203.852 31.5026 204.008 31.3203C204.177 31.138 204.353 31.0404 204.535 31.0273C204.73 31.0013 204.926 31.0469 205.121 31.1641C205.316 31.2812 205.486 31.4375 205.629 31.6328C205.772 31.8151 205.876 32.0234 205.941 32.2578C206.02 32.4922 206.033 32.7135 205.98 32.9219C205.798 33.4557 205.538 34.0807 205.199 34.7969C204.861 35.513 204.431 36.1901 203.91 36.8281C203.389 37.4661 202.777 38.0065 202.074 38.4492C201.371 38.8919 200.564 39.1133 199.652 39.1133C198.871 39.1133 198.155 38.9115 197.504 38.5078C196.866 38.1042 196.312 37.5964 195.844 36.9844C195.388 36.3724 195.036 35.7018 194.789 34.9727C194.542 34.2435 194.418 33.5469 194.418 32.8828C194.418 32.6745 194.509 32.4661 194.691 32.2578C194.874 32.0365 195.102 31.8021 195.375 31.5547C195.661 31.2943 195.961 31.0078 196.273 30.6953C196.599 30.3828 196.898 30.0312 197.172 29.6406C197.458 29.25 197.693 28.8138 197.875 28.332C198.057 27.8372 198.148 27.2839 198.148 26.6719C198.148 26.1771 198.025 25.7734 197.777 25.4609C197.543 25.1484 197.237 24.9922 196.859 24.9922C196.625 24.9922 196.339 25.0833 196 25.2656C195.674 25.4349 195.329 25.7344 194.965 26.1641C194.6 26.5938 194.236 27.1667 193.871 27.8828C193.507 28.5859 193.168 29.4648 192.855 30.5195V37.3945C192.855 37.5898 192.849 37.7917 192.836 38C192.836 38.1953 192.797 38.3711 192.719 38.5273C192.654 38.6966 192.543 38.8333 192.387 38.9375C192.243 39.0547 192.029 39.1133 191.742 39.1133C191.547 39.1133 191.332 39.0872 191.098 39.0352C190.876 38.9961 190.668 38.9115 190.473 38.7812C190.29 38.6641 190.134 38.4883 190.004 38.2539C189.887 38.0326 189.828 37.7331 189.828 37.3555V13.3516ZM215.16 36.4766C215.564 36.4766 215.909 36.3333 216.195 36.0469C216.495 35.7604 216.749 35.4023 216.957 34.9727C217.178 34.543 217.354 34.0807 217.484 33.5859C217.628 33.0781 217.745 32.6029 217.836 32.1602C217.927 31.7435 218.057 31.444 218.227 31.2617C218.409 31.0664 218.604 30.9688 218.812 30.9688C218.969 30.9688 219.125 31.0208 219.281 31.125C219.451 31.2161 219.6 31.3398 219.73 31.4961C219.874 31.6523 219.984 31.8281 220.062 32.0234C220.154 32.2188 220.199 32.4141 220.199 32.6094C220.199 32.6354 220.199 32.668 220.199 32.707C220.199 32.7461 220.186 32.8047 220.16 32.8828C219.991 33.5469 219.757 34.2435 219.457 34.9727C219.171 35.7018 218.799 36.3724 218.344 36.9844C217.888 37.5964 217.335 38.1042 216.684 38.5078C216.046 38.9115 215.297 39.1133 214.438 39.1133C213.734 39.1133 213.122 38.9635 212.602 38.6641C212.081 38.3646 211.671 37.9674 211.371 37.4727C210.967 37.9284 210.479 38.3125 209.906 38.625C209.346 38.9505 208.689 39.1133 207.934 39.1133C207.152 39.1133 206.462 38.957 205.863 38.6445C205.277 38.332 204.783 37.9089 204.379 37.375C203.975 36.8281 203.669 36.1901 203.461 35.4609C203.266 34.7188 203.168 33.9245 203.168 33.0781C203.168 31.4115 203.435 29.9141 203.969 28.5859C204.503 27.2578 205.212 26.1315 206.098 25.207C206.983 24.2695 207.992 23.5534 209.125 23.0586C210.271 22.5638 211.456 22.3164 212.68 22.3164C213.227 22.3164 213.669 22.4661 214.008 22.7656C214.346 23.0651 214.516 23.4753 214.516 23.9961C214.516 24.3346 214.477 24.5755 214.398 24.7188C214.333 24.849 214.203 24.9141 214.008 24.9141C213.826 24.9141 213.637 24.901 213.441 24.875C213.246 24.849 213.044 24.8359 212.836 24.8359C212.081 24.8359 211.312 25.0052 210.531 25.3438C209.75 25.6693 209.04 26.1771 208.402 26.8672C207.777 27.5443 207.263 28.4102 206.859 29.4648C206.456 30.5065 206.254 31.75 206.254 33.1953C206.254 34.25 206.456 35.0638 206.859 35.6367C207.263 36.1966 207.816 36.4766 208.52 36.4766C209.066 36.4766 209.522 36.2747 209.887 35.8711C210.251 35.4544 210.544 34.9661 210.766 34.4062V28.2344C210.766 28.0391 210.753 27.8763 210.727 27.7461C210.714 27.6159 210.694 27.5052 210.668 27.4141C210.655 27.3229 210.642 27.2448 210.629 27.1797C210.616 27.1016 210.609 27.0299 210.609 26.9648C210.609 26.7565 210.707 26.5938 210.902 26.4766C211.111 26.3464 211.358 26.2812 211.645 26.2812C212.309 26.2812 212.836 26.457 213.227 26.8086C213.617 27.1471 213.812 27.5573 213.812 28.0391V34.6406C213.812 34.862 213.839 35.0833 213.891 35.3047C213.943 35.513 214.021 35.7083 214.125 35.8906C214.229 36.0599 214.366 36.2031 214.535 36.3203C214.717 36.4245 214.926 36.4766 215.16 36.4766Z" fill="white"/>
<g clip-path="url(#clip0_123_1380)">
<path d="M92.569 16.0393C94.271 14.6563 94.6669 13.3446 94.9349 11.863C95.1461 10.6958 95.8794 9.97294 96.522 9.94199C96.5732 9.93956 96.6412 9.94073 96.7174 9.94538C97.3997 9.63338 98.5153 10.2166 98.5153 10.2166C99.0328 9.52722 98.7379 9.03532 98.7379 9.03532C98.7119 8.82405 99.1173 8.70124 99.2697 8.95145C99.6767 9.61796 99.0304 10.8758 99.0304 10.8758C99.3746 11.5982 99.1847 12.6038 99.0825 13.0187C99.1974 14.3962 98.608 15.241 97.826 15.9707C96.606 17.1093 94.2021 18.8948 91.912 18.4805C91.2466 18.3601 90.5913 18.0543 89.9771 17.4929C88.5715 16.2092 90.9177 17.3809 92.569 16.0393ZM91.992 18.0383C94.286 18.4533 96.687 16.4885 97.6129 15.6244C98.3815 14.9072 98.8597 14.1715 98.696 12.9112C98.6111 12.2577 98.4823 12.1765 98.3972 12.1227C98.2836 12.051 98.0186 11.8838 98.1087 11.3525C98.0433 11.2477 97.7175 11.1247 97.5923 11.0772C97.3085 10.9699 97.0403 10.8686 97.0175 10.5155C97.016 10.4947 97.0155 10.4669 97.018 10.4345L96.992 10.4296C96.8081 10.3963 96.6105 10.3837 96.5103 10.3886C96.0528 10.4105 95.4719 10.9578 95.2963 11.9284C95.0263 13.4208 94.6292 14.8861 92.7602 16.4047C91.932 17.0777 90.9637 17.1821 90.3188 17.2225C90.8234 17.6545 91.3856 17.9286 91.992 18.0383Z" fill="#ED4040"/>
<g clip-path="url(#clip1_123_1380)">
<path d="M92.569 16.0393C94.271 14.6563 94.6669 13.3446 94.9349 11.863C95.1461 10.6958 95.8794 9.97294 96.522 9.94199C96.5732 9.93956 96.6412 9.94073 96.7174 9.94538C97.3997 9.63338 98.5153 10.2166 98.5153 10.2166C99.0328 9.52722 98.7379 9.03532 98.7379 9.03532C98.7119 8.82405 99.1173 8.70124 99.2697 8.95145C99.6767 9.61796 99.0304 10.8758 99.0304 10.8758C99.3746 11.5982 99.1847 12.6038 99.0825 13.0187C99.1974 14.3962 98.608 15.241 97.826 15.9707C96.606 17.1093 94.2021 18.8948 91.912 18.4805C91.2466 18.3601 90.5913 18.0543 89.9771 17.4929C88.5715 16.2092 90.9177 17.3809 92.569 16.0393ZM91.992 18.0383C94.286 18.4533 96.687 16.4885 97.6129 15.6244C98.3815 14.9072 98.8597 14.1715 98.696 12.9112C98.6111 12.2577 98.4823 12.1765 98.3972 12.1227C98.2836 12.051 98.0186 11.8838 98.1087 11.3525C98.0433 11.2477 97.7175 11.1247 97.5923 11.0772C97.3085 10.9699 97.0403 10.8686 97.0175 10.5155C97.016 10.4947 97.0155 10.4669 97.018 10.4345L96.992 10.4296C96.8081 10.3963 96.6105 10.3837 96.5103 10.3886C96.0528 10.4105 95.4719 10.9578 95.2963 11.9284C95.0263 13.4208 94.6292 14.8861 92.7602 16.4047C91.932 17.0777 90.9637 17.1821 90.3188 17.2225C90.8234 17.6545 91.3856 17.9286 91.992 18.0383Z" fill="#ED4040"/>
<g clip-path="url(#clip2_123_1380)">
<path d="M99.2653 8.94339C99.6801 9.62117 99.0354 10.8744 99.0354 10.8744C99.4777 11.8128 99.0306 13.2114 99.0306 13.2114L98.7478 10.731C99.0649 9.47334 98.7418 9.03132 98.7418 9.03132C98.7047 8.8237 99.1158 8.69716 99.2653 8.94339Z" fill="#ED4040"/>
<path d="M99.0951 9.05867C99.4424 9.61465 98.8104 10.7971 98.8104 10.7971C99.2527 11.7356 98.9128 12.4594 98.844 12.9219L96.3449 10.3145C96.8485 9.34627 98.5274 10.2162 98.5274 10.2162C99.0264 9.52112 98.7418 9.03127 98.7418 9.03127C98.7418 9.03127 98.8478 9.10525 99.0951 9.05867Z" fill="#ED4040"/>
<path d="M92.562 16.041C94.2618 14.6499 94.6608 13.3523 94.9296 11.8667C95.1408 10.6994 95.8694 9.97278 96.5166 9.94375C96.8474 9.93055 97.84 10.0553 97.4435 10.3489C97.0615 10.6451 98.6016 10.6315 98.464 11.392C98.3648 11.9402 98.8591 11.3539 99.0608 12.7967C99.2529 14.2927 98.6433 15.1869 97.8328 15.9535C96.2535 17.4212 92.7157 19.9775 89.9886 17.475C88.5745 16.2145 90.9152 17.3869 92.562 16.041Z" fill="#ED4040"/>
</g>
</g>
</g>
<defs>
<clipPath id="clip0_123_1380">
<rect width="9.40178" height="11.5027" fill="white" transform="matrix(-0.984025 -0.178033 -0.178033 0.984025 100.299 8.67383)"/>
</clipPath>
<clipPath id="clip1_123_1380">
<rect width="9.40178" height="11.5027" fill="white" transform="matrix(-0.984025 -0.178033 -0.178033 0.984025 100.299 8.67383)"/>
</clipPath>
<clipPath id="clip2_123_1380">
<rect width="9.40178" height="11.5027" fill="white" transform="matrix(-0.984025 -0.178033 -0.178033 0.984025 100.299 8.67383)"/>
</clipPath>
</defs>
</svg>
