<svg width="28" height="28" viewBox="0 0 28 28" fill="none" xmlns="http://www.w3.org/2000/svg">
<g clip-path="url(#clip0_45_121)">
<path d="M18.749 20.9929C14.4943 16.9426 14.0297 13.6289 14.0297 9.96399C14.0297 7.07649 12.2639 5.02724 10.3971 4.67462C10.2484 4.64662 10.0484 4.61993 9.82269 4.59805C7.98869 3.55505 4.40994 4.46855 4.40994 4.46855C3.25888 2.59299 4.38413 1.54255 4.38413 1.54255C4.57225 1.04774 3.44919 0.577867 2.86994 1.11118C1.32382 2.5313 2.551 5.82437 2.551 5.82437C1.15932 7.40549 1.1825 9.89662 1.26213 10.9348C0.195065 14.1846 1.47432 16.4635 3.37919 18.5504C6.35069 21.8062 12.449 27.1249 19.3799 27.1249C21.3937 27.1249 23.4762 26.6765 25.574 25.5981C30.3738 23.1323 22.8768 24.9221 18.749 20.9929ZM19.3799 26.0312C12.4372 26.0312 6.44256 20.2842 4.18725 17.8132C2.31519 15.7622 1.30369 13.7926 2.45169 10.8447C3.04713 9.31605 3.46757 9.17737 3.74538 9.08549C4.11638 8.96299 4.98175 8.6773 4.99925 7.36568C5.24644 7.14299 6.26669 6.98943 6.65869 6.92993C7.54725 6.79605 8.38681 6.66962 8.641 5.83355C8.65631 5.78455 8.6725 5.71805 8.68257 5.6393L8.76131 5.63887C9.31781 5.63887 9.90363 5.69443 10.1946 5.74955C11.5237 6.00024 12.9359 7.56299 12.9359 9.96399C12.9359 13.6556 13.3227 17.3376 17.9948 21.7852C20.065 23.7562 22.8475 24.426 24.7161 24.8022C23.0081 25.6182 21.2152 26.0312 19.3799 26.0312Z" fill="#5C5C5C"/>
<g clip-path="url(#clip1_45_121)">
<path d="M2.88745 1.09385C1.31245 2.5376 2.53746 5.81885 2.53746 5.81885C0.743705 7.8751 1.31245 11.4189 1.31245 11.4189L3.45621 5.6001C3.19371 2.4501 4.37496 1.53135 4.37496 1.53135C4.59371 1.0501 3.4562 0.568853 2.88745 1.09385Z" fill="#6C9925"/>
<path d="M3.32503 1.44385C2.01253 2.6251 3.23753 5.73135 3.23753 5.73135C1.44378 7.7876 2.05628 9.66885 2.01253 10.8063L10.7188 5.64385C9.75628 3.10635 4.37503 4.4626 4.37503 4.4626C3.28128 2.58135 4.37503 1.53135 4.37503 1.53135C4.37503 1.53135 4.02503 1.6626 3.32503 1.44385Z" fill="#ED4040"/>
<path d="M18.7687 21C14.5249 16.9312 14.0437 13.65 14.0437 9.97496C14.0437 7.08746 12.2937 5.03121 10.4124 4.68121C9.44994 4.50621 6.47494 4.37496 7.48119 5.24996C8.44369 6.12496 3.93744 5.42496 3.93744 7.30621C3.93744 8.66246 2.79994 7.04371 1.44369 10.4125C0.0874419 13.9125 1.39994 16.3187 3.36869 18.5062C7.21869 22.7062 16.2312 30.3625 25.5499 25.55C30.3624 23.1437 22.8812 24.9375 18.7687 21Z" fill="#ED4040"/>
</g>
</g>
<defs>
<clipPath id="clip0_45_121">
<rect width="28" height="28" fill="white"/>
</clipPath>
<clipPath id="clip1_45_121">
<rect width="28" height="28" fill="white"/>
</clipPath>
</defs>
</svg>
